<?xml version="1.0" encoding="utf-8"?>
<!-- Generator: Adobe Illustrator 24.2.3, SVG Export Plug-In . SVG Version: 6.00 Build 0)  -->
<svg version="1.1" id="Layer_1" xmlns="http://www.w3.org/2000/svg" xmlns:xlink="http://www.w3.org/1999/xlink" x="0px" y="0px"
	 viewBox="0 0 764 764" style="enable-background:new 0 0 764 764;" xml:space="preserve">
<style type="text/css">
	.st0{fill:url(#SVGID_1_);}
</style>
<radialGradient id="SVGID_1_" cx="382" cy="382" r="292.4504" gradientUnits="userSpaceOnUse">
	<stop  offset="0" style="stop-color:#731C88"/>
	<stop  offset="8.000000e-02" style="stop-color:#BB266C"/>
	<stop  offset="0.12" style="stop-color:#E8443B"/>
	<stop  offset="0.16" style="stop-color:#F17902"/>
	<stop  offset="0.2" style="stop-color:#C59900"/>
	<stop  offset="0.24" style="stop-color:#92B300"/>
	<stop  offset="0.28" style="stop-color:#2CB22E"/>
	<stop  offset="0.32" style="stop-color:#00958D"/>
	<stop  offset="0.36" style="stop-color:#185ABF"/>
	<stop  offset="0.4" style="stop-color:#7623C2"/>
	<stop  offset="0.44" style="stop-color:#CA1993"/>
	<stop  offset="0.48" style="stop-color:#F23D29"/>
	<stop  offset="0.52" style="stop-color:#F48400"/>
	<stop  offset="0.56" style="stop-color:#E7A700"/>
	<stop  offset="0.6" style="stop-color:#EFC200"/>
	<stop  offset="0.64" style="stop-color:#EBD81A"/>
	<stop  offset="0.68" style="stop-color:#C4D157"/>
	<stop  offset="0.72" style="stop-color:#9CC478"/>
	<stop  offset="0.76" style="stop-color:#6FBC95"/>
	<stop  offset="0.8" style="stop-color:#3AB8B6"/>
	<stop  offset="0.84" style="stop-color:#069ACD"/>
	<stop  offset="0.88" style="stop-color:#0068BA"/>
	<stop  offset="0.92" style="stop-color:#1330A4"/>
	<stop  offset="1" style="stop-color:#6F1C88"/>
</radialGradient>
<path class="st0" d="M682.5,182.4C600.5,67.2,457.9,1.2,318.1,8.1c-75.5,3.8-152,28.8-207.2,81.3C57,140.7,27.5,214.1,15.5,288.1
	c-12,74-7.8,149.7-3.5,224.6c2.9,49.8,6.5,102,33,144.1c24.1,38.3,64.8,63.4,107.4,77c42.7,13.6,117.2,18.6,161.8,20.9
	c59.2,3,119,3.2,177.5-6.5c58.5-9.7,116.5-31.4,160.9-71.4c27.7-24.9,49.4-56.3,65.9-90C780.8,459.4,764.5,297.6,682.5,182.4z"/>
<path d="M688.6,178.3C604.9,60.7,459.4-6.6,316.8,0.5c-77.1,3.8-155.1,29.4-211.5,83C50.4,135.8,20.2,210.6,8,286.2
	S0,438.9,4.4,515.3c2.9,50.8,6.7,104.1,33.7,147c24.6,39.1,66.1,64.7,109.6,78.6c43.5,13.9,119.6,19,165.1,21.3
	c60.4,3,121.4,3.2,181.1-6.7c59.7-9.9,118.8-32.1,164.2-72.8c28.3-25.4,50.4-57.4,67.2-91.8C788.9,460.9,772.3,295.9,688.6,178.3z
	 M365.6,217.2c1.1-15.9,2.2-31.8,3.3-47.8c0.2-3.3,0.2-7.1-2.5-9.1c-3.9-2.9-9.5,1.2-14.2,0c-6.6-1.6-8.2-12.3-15-12.8
	c-2.8-0.2-5.3,1.5-7.3,3.4c-2,1.9-3.7,4.2-6.1,5.5s-5.8,1.6-7.7-0.5c-2-2.2-1.3-5.7,0-8.3c2.5-5.1,6.9-9.4,12.1-11.6
	c10.4-4.5,24.2-2,35.2-1.5c8.6,0.4,17.2,3.7,26,4.2c18.4,1,37.1-2.8,53.6-11.1c3.3-1.7,7.7-3.4,10.3-0.7c1.8,1.9,1.5,5.1,0,7.3
	c-4.2,5.9-12.8,11.4-19.4,14c-8.7,3.5-18.6,4-27.5,1c-2-0.7-4.2-1.5-6.2-0.7c-3.2,1.4-3.2,5.8-2.7,9.3c5.3,38.6,1.9,77.8-0.3,116.6
	c-0.1,2.5,0,5.6,2.1,6.9c1.8,1.2,4.3,0.4,6.2-0.5c4.1-1.9,7.7-4.6,10.8-7.9c2.7-2.8,4.1-6.7,7-9.3c1.6-1.4,3.8-2.4,5.9-2
	c3.6,0.7,5.5,5,4.9,8.6c-0.7,3.9-3.5,6.8-5.4,10c-2.4,4.2-4.7,8.5-7,12.7c-2.4,4.3-5,8.7-9.1,11.5c-7.5,5.1-17.6,3-26.4,0.7
	c-12.7-3.3-25.9-9.3-39.3-6.5c-5.1,1.1-10.3,2.6-13.3,7.1c-3.5,5.3-4.7,12-3.9,18.3c1.1,8.3,5.5,16,11.4,21.9s13.1,10.4,20.6,14.2
	c2,1,4.4,2.5,4.2,4.7c-0.2,2.7-3.8,3.6-6.5,3.5c-14.9-0.6-29.5-9.3-38-21.6c-6.7-9.6-9.4-22.1-5.9-33.2c6-19,29-32.5,48.4-29.7
	c-0.6-0.1-1.4-24.5-1.2-26.7c0.5-9,1.5-18.1,2.1-27.1C365.1,225.8,365.4,221.5,365.6,217.2z M260.1,382.7
	c5.5,4.2,10.3,9.2,14.3,14.8c8.2,11.4,13.2,25.3,13.6,39.4c0.3,9.4-1.9,19.8-9.7,25.1c-4.7,3.2-10.5,3.9-16,5.2
	c-15.8,3.8-29.4,13.4-39.7,25.7c-2.6,3.1-5.3,6.6-9.2,7.5c-5.1,1.1-7.8-2.8-10-6.5c-2.2-3.6-5.9-5.2-9-7.8c-1-0.9-2.1-1.8-2.8-2.9
	c-2.8-4.7,1.3-10.3,5.1-12.9c4.8-3.3,12.9-4,18.4-5.6c13.9-3.9,27.9-7.7,41.8-11.6c3.3-0.9,6.6-1.8,9.3-3.9
	c3.7-2.8,5.6-7.5,6.2-12.1c1.6-13.9-2.9-29.4-12.5-39.6c-8.2-8.8-20.2-14.9-32.3-15c-2.7,0-5.4,0.3-8.1,0.8c-2,0.4-4,1-6,0.8
	c-2-0.3-4-1.7-4.2-3.7c-0.1-1.4,0.7-2.8,1.8-3.6s2.5-1.4,3.8-1.8c11-3.9,22-7.8,33.1-11.4c2.7-0.9,5.5-1.8,8.1-3.2
	c1.2-0.6,3.7-2,3.2-3.7c-0.7-2.5-7.2-6.7-9.2-8.6c-3.3-3.1-6.6-6.1-9.9-9.2c-8.4-7-16.8-19.9-28-22.5c-9.2-2.2-12.5,7.5-19.4,11.2
	c-1.9,1-4.1,1.5-6.1,0.7c-3.1-1.4-2.6-4.5-0.8-6.6c3.7-4.4,8.2-8.4,12.3-12.4c4.9-4.8,10.2-9.8,16.9-11.1c6.2-1.2,12.6,1,17.8,4.6
	c6.9,4.7,11.7,11.7,18.3,16.8c3.9,3.1,8,6.2,12.3,8.6c5,2.7,10,5.4,14.9,8.1c2.4,1.3,5.8,3.2,5.5,6.3c-0.1,1.2-0.4,2.4,0,3.5
	c0.5,1.7,2.4,2.6,3.6,3.9c3,3,2.3,7.3-1,9.8c-1.6,1.3-4,1.6-6,2.1c-2.7,0.8-5.4,1.6-8.1,2.4c-10.7,3.1-21.4,6.2-32.1,9.3
	c2.4-0.7,8.6,2.9,10.8,4c3.1,1.5,5.9,3,8.6,5.1C260.1,382.6,260.1,382.6,260.1,382.7z M227.7,128.1c0.4-0.9,1-1.7,1.6-2.5
	c4-4,7.3-2,11.2,0.4c7.3,4.5,13.8,9.5,21.5,13.4c7.4,3.8,15.1,7.6,20.7,13.9c9.2,10.3,11.3,25,12.9,38.8c0.9,7.9,1.9,15.9,0.9,23.9
	c-1.9,16.3-12.8,24.5-25.4,33.3c-2,1.4-4,2.8-6.4,3c-3.9,0.3-6.4-3.6-5.8-7.2c0.4-2.1,2.5-4.3,3.4-6.2c1.3-2.5,2.3-5.2,3-8
	c3.4-12.5,1.2-25.5,0.9-38.3c-0.3-11.8,0-23.6-7.3-33.7c-6.2-8.5-17.4-11.2-25.6-17.5c-2.8-2.1-5.5-4.6-6.3-8
	C226.8,131.6,227,129.7,227.7,128.1z M142.5,208.5c0.3-1.7,1.7-3,2.8-4.7c3.1-4.2,2.2-9.6,3.1-14.6c1-5.4,2.7-10.6,5-15.5
	c12-25.8,39.4-37.2,63.7-48.5c1.5-0.7,3.4-1.4,4.7-0.3c1.8,1.4,0.5,5.9-0.2,7.7c-1.1,2.9-2.9,5.5-5.2,7.5c-3.9,3.6-9.1,5-13.1,8.1
	c-4.5,3.5-9.1,6.7-13.2,10.6c-5.3,5.1-11.1,10.9-12.3,18.4c-1.3,8,2.7,16,2,24.1c-0.4,4.7-2.4,9.2-3.7,13.7c-1.3,4.6-2,9.7,0.2,13.9
	c4.3,8.2,16.5,9.4,24.5,12.1c8,2.7,16.1,5.3,24.1,8c7.3,2.4,15.6,5.3,23.2,2.6c2-0.7,7.2-2.4,6.6,1.9c-0.2,1.5-1.5,2.7-2.7,3.6
	c-6.1,4.4-11.3,10-18.6,12.5c-14.3,4.9-29.6-0.5-42.9-6.1c-10.9-4.6-22.7-7.6-33.9-11.4c-3.5-1.2-8.3-2.3-10.8-5.3
	c-4-4.8,2.7-9.6,4.8-13.6c3.1-6.2,0-12.6-4.3-17.2c-1.5-1.6-3.3-3.5-3.7-5.7C142.4,209.5,142.4,209,142.5,208.5z M182.4,425.4
	c0.3,15.3,0.3,30.6-2.1,45.7c-0.8,5.3-2,10.8-5.4,14.9c-5.3,6.5-10.5,5.1-17.4,2.8c-7.4-2.5-15.5-4.1-23-1.4
	c-6.9,2.5-12.1,8.4-15.3,14.9c-5.8,12.2-4.8,27.4,2.5,38.7c4.8,7.4,12.2,13,20.6,15.8c2.5,0.9,26.6,3.6,19.6,9.7
	c-2.6,2.3-8.8-0.3-11.7-0.7c-10.6-1.5-21-5-29.8-11.1c-10.3-7.2-18.2-18.2-20.4-30.7c-4-23,14.7-45.6,36.5-50.8
	c6.4-1.5,14.1-2.4,17.2-8.2c1.6-3,1.5-6.6,1.4-10.1c-0.6-14.1-1-28.3-1.2-42.4c-0.2-14.2-0.3-28.3-0.3-42.5c0-7.8,0-15.6,0-23.4
	c0-1.1,0-2.2-0.4-3.2c-0.4-1-1.1-2-2.2-2.2c-1.2-0.3-2.5,0.4-3.5,1.1c-3.8,2.4-7.5,4.8-11.3,7.2c-2.8,1.8-10.7,8.6-14.2,6
	c-1.6-1.2-2-3.4-1.5-5.3c0.5-1.9,1.7-3.5,2.9-5.1c5-6.6,10.1-13.3,16.6-18.4c6.5-5.1,14.7-8.6,23-7.8c5.8,0.6,11.6,3.7,15,8.6
	c3.7,5.2,2.8,13.1,2.9,19.3c0.3,15.5,0.6,30.9,0.9,46.4c0.2,8.6,0.4,17.3,0.5,25.9C182.3,421.3,182.3,423.3,182.4,425.4z M350.4,599
	c-3.8,6.2-9.1,11.2-13.9,17.2c-3.3,4.1-18,25-24.6,18c-1.1-1.2-1.5-3-1.4-4.6c0.2-4.1,2.7-7,5-10.2c2.3-3.3,4-6.9,5.3-10.7
	c2.9-8.2,4-17,4.5-25.6c0.7-13-0.1-26.6-6.3-38c-6.2-11.5-17.8-19.9-30.6-22.4c-11.3-2.1-28,0.2-35.8,9.3
	c-7.9,9.2-9.7,22.5-10.6,34.2c-0.9,12.5-2.4,26.9,3.2,38.6c5.1,10.6,16.6,15.7,27.4,18.7c5.9,1.6,11.8,1.7,17.7,3.4
	c7.3,2.1,16.5,7,19.7,14.3c1.1,2.6,1.5,5.8-0.1,8.2c-1.4,2.1-4,3.1-6.5,3.1c-4.4,0.1-9.6-1.5-14-2.3c-5.4-0.9-10.7-2-16-3.2
	c-16.9-3.7-35-7.8-50.8-15.2c-7.5-3.5-2.8-11.9-0.3-17.4c5.9-13.4-0.3-30.1-13.4-36.6c-2.3-1.1-4.7-2-6.6-3.7
	c-1.8-1.7-2.9-4.7-1.4-6.8c1.9-2.9,5.5-1.7,8.1-1c6.4,1.5,12.5-1.9,14.7-8c1.7-4.6,1.7-9.7,3-14.5c2.8-10.1,11.6-17.3,20.6-22.6
	c4.9-2.9,10-5.4,15-8.2c4.5-2.5,8.6-6.7,13.5-7.9c11.2-2.8,22.5,3.8,33.2,5.9c10.6,2.1,21.7,4.2,30.6,10.7c4,2.9,7.5,7,9.1,11.7
	c1.8,5.1,0.8,10.6,2.1,16c3.2,12.6,7,25.7,4.1,38.7C354,592.3,352.4,595.8,350.4,599z M478.2,435.9c-1.2,2.8-2.6,5.5-4,7.6
	c-1.4,2.1-3,4.1-5.2,5.3c-2.7,1.5-6.6,1.5-8.9-0.9c-2.9-3-2.3-8.7-5.9-10.9c-2.2-1.4-5.3-0.7-7.3,1s-3.2,4.1-4.3,6.5
	c-8.1,17.9-12,37.8-15.5,57c-3.6,20.3-5.9,40.9-6.9,61.5c-0.4,9.5-0.6,19-0.5,28.5c0.1,4.5,0.5,9.6,3.9,12.4c3,2.5,7.5,2.3,11.3,1.3
	c3.8-1,7.4-2.8,11.3-3.2c6.7-0.7,14.8,5.8,12,13.1c-1.1,2.8-3.7,4.8-6.5,5.8c-2.8,1-5.9,1.2-8.8,1.3c-20.7,1.1-41.4,2.2-62.1,3.4
	c-1.3,0.1-2.7,0.2-4-0.2c-1.3-0.4-2.5-1.3-2.8-2.6c-0.4-1.4,0.4-2.9,1.5-3.8c1.8-1.5,4.3-2.1,6.4-2.9c7.4-2.7,12.6-9.7,14.9-17.2
	c2.3-7.5,2.2-15.6,1.7-23.4c-3.2-48-19.1-95.5-47.4-134.3c-1.3-1.7-5.6-7-7.7-7.2c-2.3-0.3-5.2,3.5-7.4,4.2c-6,1.8-10.2-2.9-8.8-8.7
	c1.3-5.3,6.1-10.7,9.9-14.4c3.3-3.3,7.5-6,12.1-6.9c10.5-2,16.9,5.5,21.4,13.6c9.8,17.7,19.7,35.4,29.9,52.9
	c0.6,1.1,1.3,2.2,1.9,3.3c1.2,2.1,2.9,4.6,5.4,4.6c1.7,0,3.2-1.2,4-2.6s1.2-3.1,1.6-4.8c3-13.6,8.3-27.8,15.6-39.6
	c4.4-7.2,10.1-13.7,17-18.5c7.7-5.3,15.2-6.7,24.2-3.3c4.2,1.6,8.1,4.5,9.6,8.7C481.1,426.4,480,431.4,478.2,435.9z M550.4,647.1
	c-0.6,1.7-2,3.2-3.8,3.4c-2,0.2-3.9-1.3-4.8-3.2c-0.8-1.9-0.9-4-0.9-6c0-5.2-0.1-10.5-0.1-15.7c0-3.4-0.8-9,3.1-10.8
	c2-0.9,4.6-0.3,5.9,1.5c2.1,2.7,0.9,8.8,1,12c0.1,4.5,0.1,9,0.2,13.6c0,0,0,0.1,0,0.1C551,643.6,551,645.4,550.4,647.1z
	 M624.4,387.5C624.4,387.5,624.4,387.5,624.4,387.5c-0.6,2.4-1.9,4.4-3.3,6.3c-3.5,4.7-6.8,10.1-13.1,11.3c-5,0.9-10-1.5-14.7-3.4
	c-14.2-5.9-29.8-8.4-45.1-7.3c-23.6,1.6-30.5,22.6-30.7,43.9c-0.1,8.1,2.2,16.6,7.8,22.4c5.9,6.1,14.6,8.6,22.9,10.4
	c11.3,2.5,22.9,4.1,33.9,7.7s21.7,9.3,29,18.4c6.6,8.2,9.9,18.6,11,29c1.1,10.4,0.2,20.9-1,31.3c-1.3,11.2-2.9,22.6-7.6,32.8
	c-7,15.1-21.4,26.2-38.6,24.5c-17.1-1.7-32.2-13.3-49.8-11.7c-8,0.7-17,5.1-24.8,4.6c-2.4-0.1-4.9-1.7-5.3-4.1
	c-0.5-2.8,2.1-5.2,4.4-6.9c22-15.1,44.2-10.4,68.8-8.5c4,0.3,8.2,0.6,12-0.8c4.8-1.7,8.3-6,10.3-10.6c4.3-9.7,5.3-22.2,4.4-32.7
	c-1.2-13.3-7-26.4-16.9-35.4c-11.7-10.7-27.4-14.8-42.6-17.8c-24.9-4.8-38.2-26.2-39.2-50.4c-0.7-16.6,2.7-35.1,13.2-48.4
	c12.1-15.4,31.6-17,49.6-12.8c13.2,3.1,40.5,17.2,52.5,7c2.3-1.9,4.7-4.5,7.6-5.5C623.8,379.4,625.4,383.4,624.4,387.5z
	 M538.2,408.4c0.1-1.2,0.3-2.4,0.8-3.5c0.7-1.5,2-2.8,3.6-3c2-0.3,3.9,1.1,4.9,2.9c0.9,1.8,1,3.8,1.2,5.7
	c0.8,14.3,1.7,28.5,2.5,42.8c0.1,2.1,0.2,4.2-0.5,6.1c-1.2,3.3-4.6,4.7-7.4,2.4c-2-1.6-2.5-4-3.2-6.3c-2-6.4-1.5-12.9-1.9-19.4
	c-0.5-8.9-0.5-17.7,0.1-26.6C538.1,409.2,538.1,408.8,538.2,408.4z M543.7,505.9c0.1-0.7,0.2-1.3,0.5-2c0.6-1.6,2-2.9,3.7-3
	c1.6-0.1,3.1,1,3.9,2.3c0.8,1.4,1.1,3,1.4,4.5c3.5,21.1,0.7,42.7,0.2,63.9c0,1.6-0.1,3.3-0.6,4.9s-1.7,3-3.3,3.4
	c-2.3,0.6-4.8-1.1-5.8-3.2c-1-2.2-1-4.7-0.9-7.1c0.5-20.3,0.8-40.5,0.9-60.7C543.6,507.9,543.6,506.9,543.7,505.9z M650.8,286.4
	c-0.2,1.5-1,3.1-2.1,4.2c-2.1,2.2-5,3.4-7.8,4.7c-13.8,6.4-25.7,16.9-33.9,29.7c-1.9,3-4.2,6.6-7.7,7c-8.8,1.2-5.4-9.7-6-14.5
	c-0.9-7.1-4.5-13-10.2-17.3c-6.9-5.3-15.5-8-23.9-10.5c-8.5-2.5-17.2-4.9-26.1-5.5c-8.9-0.6-18.1,0.8-25.7,5.4
	c-7.6,4.6-13.4,12.7-13.8,21.6c-0.3,7.1,2.9,14.2,8.1,19.1c5.2,4.9,12.2,7.6,19.3,8.2c5.9,0.4,12.4-0.4,17,3.2
	c4.5,3.5,5.5,9.8,6.2,15.4c0.3,2.5,0.6,5-0.2,7.4s-2.9,4.5-5.4,4.5c-2.8,0-4.9-2.7-5.5-5.4c-0.6-2.7-0.2-5.5-0.3-8.3s-0.8-5.8-3-7.4
	c-1.3-1-3-1.3-4.6-1.7c-13.1-2.7-25.5-4.2-35.1-14.6c-7.2-7.8-9.9-19.5-7-29.7c1.9-6.6,6.2-12.5,11.8-16.5
	c4.4-3.2,14.3-5.4,14.3-12.3c0.1-28.3-0.6-56.6-0.9-85c-0.1-14,0-28,0.2-41.9c0-3.5,0.1-7,0.1-10.6c0-0.8-0.1-1.8-0.9-2.2
	c-0.4-0.2-1-0.1-1.4,0.1c-4.2,1.2-8.4,2.5-12.6,3.6c-4.8,1.2-9.5,2.5-14.3,3.7c-1.3,0.3-2.9,0.6-3.7-0.5c-0.8-1-0.2-2.6,0.4-3.7
	c2.5-4.7,5-9.3,8.2-13.5s7.3-7.8,12.2-9.7c8.7-3.5,17.7,0.6,25.7,4.2c12.6,5.6,25.3,10.8,38.1,15.8c1.9,0.7,4,1.7,4.4,3.7
	c0.5,2-1.3,4.1-3.3,4.7c-1.1,0.3-2.4,0.1-3.5,0c-5.2-0.4-10.6-0.9-15.6-2.4c-2-0.6-4.5-0.7-5.7,1c-0.6,0.9-0.6,2.1-0.7,3.2
	c-0.2,16.8-0.7,33.7-1.1,50.5c-0.3,13.8-0.4,27.5-0.1,41.3c0.1,5.2,0.3,10.4,0.4,15.6c0.1,3.9,0.2,8,2.4,11.2c2.2,3.2,6,4.9,9.8,5.5
	c3.8,0.6,7.7,0.3,11.5,0.3c13.5,0,26.9,4.1,38.2,11.5c6,4,11.6,9,18.5,11.1c4.7,1.5,10.4,1.3,14.6-1.4c4.6-2.9,7.2-7.9,13-9.2
	c2.4-0.5,5.2,0.1,6.7,2C650.8,283.5,651.1,285,650.8,286.4z"/>
</svg>
